<svg width="35" height="35" viewBox="0 0 35 35" fill="none" xmlns="http://www.w3.org/2000/svg">
<path d="M15.089 27.4678L11.5961 20.1819C11.5873 20.1635 11.5809 20.144 11.5771 20.124L11.1471 17.857C11.1428 17.8343 11.1419 17.8111 11.1443 17.7881L11.3933 15.4594C11.6158 13.56 12.6221 13.3393 13.129 13.47C13.1513 13.4758 13.1739 13.4793 13.1969 13.4793H13.7143C13.7847 13.4793 13.8512 13.4481 13.8959 13.3937C14.5444 12.6051 15.8266 11.0509 16.2893 10.5091C16.7695 9.94704 17.3528 10.062 17.5844 10.1898L18.3107 10.7283C18.4269 10.8144 18.5926 10.7764 18.6596 10.6482L21.7855 4.66464C21.8803 4.41979 22.2277 3.90455 22.8595 3.80235C23.4912 3.70015 23.8597 3.99397 23.965 4.15366L25.8254 6.56764C25.8483 6.59733 25.878 6.62113 25.9119 6.63705L27.5483 7.40525C27.6004 7.42969 27.6417 7.47234 27.6645 7.52514L29.3999 11.5486C29.4371 11.6349 29.5221 11.6908 29.6161 11.6908H30.1245C30.5938 11.6409 31.0611 12.1768 31.2491 12.4694C31.2576 12.4827 31.2644 12.4967 31.2699 12.5115L33.1005 17.4367C33.1167 17.4802 33.1196 17.5275 33.109 17.5727L32.4936 20.1861L32.4579 20.2819C31.9798 21.5646 30.9995 24.1405 30.6299 24.9128C30.1561 25.9029 29.6191 25.9667 28.7979 26.1264C28.1409 26.2542 27.766 26.8397 27.6607 27.1165L25.4016 32.0339C25.3915 32.0557 25.3777 32.0765 25.3615 32.0941C24.287 33.2555 23.4574 32.4777 23.1753 31.939L20.4659 25.9822C20.4612 25.9719 20.4556 25.9616 20.4494 25.9521C19.793 24.949 18.8777 25.3936 18.5004 25.7432C18.3741 25.8922 17.8877 26.4458 16.9527 27.4678C16.0177 28.4898 15.3207 27.8936 15.089 27.4678Z" fill="url(#paint0_linear_8303_7634)" fill-opacity="0.8"/>
<path d="M1 16.2015C1.41063 16.1909 2.32666 16.1121 2.70571 15.8821C3.17952 15.5947 4.79046 15.5628 5.99078 15.8821C7.19109 16.2015 8.45458 16.1057 8.99156 15.8821C9.52855 15.6585 11.0763 15.435 12.2766 15.9779C13.2369 16.4123 14.7826 16.095 15.4354 15.8821C15.8565 15.7224 16.9894 15.4989 18.1519 15.8821C19.6049 16.3612 20.8052 16.1695 21.816 15.8821C22.8268 15.5947 23.5533 15.5627 24.4693 15.8821C25.3853 16.2015 26.7436 16.2973 28.0702 15.8821C29.3969 15.467 30.7867 15.7863 31.1974 15.978C31.5259 16.1313 32.1555 16.1483 32.4293 16.1376" stroke="#444444" stroke-width="0.98" stroke-linecap="round" stroke-linejoin="round"/>
<path d="M6.8125 13.7425C6.87567 12.9867 7.30526 11.5133 8.51821 11.6666H9.2763L11.7401 8.66454C11.9296 8.40904 12.4856 8.01941 13.1931 8.50485C13.9007 8.9903 14.9199 9.81428 15.341 10.1656" stroke="#444444" stroke-width="0.98" stroke-linecap="round" stroke-linejoin="round"/>
<path d="M15.1797 6.71641L17.3592 2.62846C17.654 2.19199 18.4774 1.54899 19.4124 2.46877L21.3076 4.86411L23.0449 5.6306L24.9085 9.91018H25.5719C25.8035 9.88889 26.3616 10.0507 26.7406 10.8683C27.1197 11.6859 28.0778 14.4665 28.5095 15.7547" stroke="#444444" stroke-width="0.98" stroke-linecap="round" stroke-linejoin="round"/>
<path d="M7 18.373L10.5062 25.6867C10.7378 26.1125 11.4348 26.7086 12.3698 25.6867C13.3048 24.6647 13.7912 24.1111 13.9176 23.962C14.2966 23.6107 15.219 23.1636 15.876 24.1856L18.5925 30.1579C18.8768 30.7008 19.717 31.4864 20.8036 30.2856L23.0779 25.3353C23.1832 25.0586 23.558 24.473 24.215 24.3453C25.0363 24.1856 25.5733 24.1217 26.0471 23.1317C26.4167 22.3594 27.3969 19.7835 27.8751 18.5008M27.8751 18.5008C27.8873 18.468 27.8992 18.436 27.9107 18.405L27.8751 18.5008Z" stroke="#444444" stroke-width="0.98" stroke-linecap="round" stroke-linejoin="round"/>
<defs>
<linearGradient id="paint0_linear_8303_7634" x1="22.133" y1="3.78125" x2="30.9708" y2="31.8718" gradientUnits="userSpaceOnUse">
<stop stop-color="#929EFF"/>
<stop offset="1" stop-color="#6070E9"/>
</linearGradient>
</defs>
</svg>
