<svg width="35" height="35" viewBox="0 0 35 35" fill="none" xmlns="http://www.w3.org/2000/svg">
<path d="M32.9997 17.941C32.9997 25.3822 26.9674 31.4145 19.5262 31.4145C12.085 31.4145 6.05273 25.3822 6.05273 17.941C6.05273 10.4998 12.085 4.46753 19.5262 4.46753C26.9674 4.46753 32.9997 10.4998 32.9997 17.941Z" fill="url(#paint0_linear_5119_7301)" fill-opacity="0.8"/>
<path fill-rule="evenodd" clip-rule="evenodd" d="M16.4735 28.97C23.3751 28.97 28.97 23.3751 28.97 16.4735C28.97 9.57185 23.3751 3.97696 16.4735 3.97696C9.57185 3.97696 3.97696 9.57185 3.97696 16.4735C3.97696 23.3751 9.57185 28.97 16.4735 28.97ZM16.4735 29.947C23.9147 29.947 29.947 23.9147 29.947 16.4735C29.947 9.03229 23.9147 3 16.4735 3C9.03229 3 3 9.03229 3 16.4735C3 23.9147 9.03229 29.947 16.4735 29.947Z" fill="#444444"/>
<path fill-rule="evenodd" clip-rule="evenodd" d="M21.1651 21.6961C21.3526 21.8685 21.6443 21.8564 21.8168 21.6689L23.7739 19.5417L22.1511 17.2356C22.0045 17.0273 21.7168 16.9773 21.5085 17.1239C21.3002 17.2705 21.2502 17.5582 21.3968 17.7665L22.3929 19.182C21.6232 19.2899 21.0079 19.2464 20.5126 19.1178C19.8853 18.9549 19.4237 18.6488 19.0671 18.2942L16.7127 15.719C16.3212 15.2257 15.3048 14.0842 14.2545 13.3428C13.6419 12.9104 12.7488 12.7442 11.9569 12.6868C11.1452 12.628 10.3462 12.678 9.8503 12.7433C9.59777 12.7765 9.41998 13.0082 9.45321 13.2607C9.48644 13.5132 9.7181 13.691 9.97063 13.6578C10.4139 13.5995 11.1497 13.5531 11.8902 13.6068C12.6504 13.6618 13.3267 13.8169 13.7226 14.0963C14.6795 14.7718 15.6413 15.8505 15.9993 16.3039L16.0096 16.317L18.4005 18.9321L18.4078 18.9394C18.8658 19.3974 19.47 19.8001 20.2808 20.0106C20.7708 20.1378 21.3262 20.1922 21.9582 20.1529L21.138 21.0444C20.9655 21.2319 20.9777 21.5236 21.1651 21.6961Z" fill="white"/>
<path d="M17.6958 12.6028L14.2109 16.6809L16.2129 19.7209L20.3651 15.5687L17.6958 12.6028Z" fill="url(#paint1_linear_5119_7301)"/>
<path fill-rule="evenodd" clip-rule="evenodd" d="M21.1651 11.2995C21.3526 11.1271 21.6443 11.1392 21.8168 11.3267L23.7739 13.454L22.1511 15.76C22.0045 15.9683 21.7168 16.0183 21.5085 15.8717C21.3002 15.7251 21.2502 15.4375 21.3968 15.2291L22.3929 13.8136C21.6232 13.7057 21.0079 13.7492 20.5126 13.8778C19.8853 14.0407 19.4237 14.3468 19.0671 14.7014L16.7127 17.2766C16.3212 17.7699 15.3048 18.9114 14.2545 19.6528C13.6419 20.0852 12.7488 20.2514 11.9569 20.3088C11.1452 20.3676 10.3462 20.3176 9.8503 20.2523C9.59777 20.2191 9.41998 19.9874 9.45321 19.7349C9.48644 19.4824 9.7181 19.3046 9.97063 19.3378C10.4139 19.3961 11.1497 19.4425 11.8902 19.3888C12.6504 19.3338 13.3267 19.1787 13.7226 18.8993C14.6795 18.2238 15.6413 17.1451 15.9993 16.6917L16.0096 16.6786L18.4005 14.0635L18.4078 14.0562C18.8658 13.5982 19.47 13.1955 20.2808 12.985C20.7708 12.8578 21.3262 12.8034 21.9582 12.8427L21.138 11.9512C20.9655 11.7637 20.9777 11.472 21.1651 11.2995Z" fill="white"/>
<defs>
<linearGradient id="paint0_linear_5119_7301" x1="19.5262" y1="4.46753" x2="26.0353" y2="31.6792" gradientUnits="userSpaceOnUse">
<stop stop-color="#929EFF"/>
<stop offset="1" stop-color="#6070E9"/>
</linearGradient>
<linearGradient id="paint1_linear_5119_7301" x1="15.722" y1="14.6232" x2="18.4706" y2="18.0787" gradientUnits="userSpaceOnUse">
<stop stop-color="#97A2F5"/>
<stop offset="1" stop-color="#919DF2"/>
</linearGradient>
</defs>
</svg>
