<svg width="35" height="35" viewBox="0 0 35 35" fill="none" xmlns="http://www.w3.org/2000/svg">
<path d="M10.6494 26.6307V17.5536C10.6494 17.1956 10.9397 16.9053 11.2978 16.9053H33.3514C33.8116 16.9053 34.1253 17.3713 33.9521 17.7977L30.2645 26.8747C30.1652 27.1192 29.9277 27.2791 29.6638 27.2791H11.2978C10.9397 27.2791 10.6494 26.9888 10.6494 26.6307Z" fill="url(#paint0_linear_5119_7254)" fill-opacity="0.8"/>
<path fill-rule="evenodd" clip-rule="evenodd" d="M2 7.83576C2 7.37418 2.37418 7 2.83576 7H13.2969C13.7584 7 14.1326 7.37418 14.1326 7.83576V21.9712C14.1326 22.4328 13.7584 22.807 13.2969 22.807H8.63981C8.17823 22.807 7.80404 22.4328 7.80404 21.9712V13.8271H2.83576C2.37418 13.8271 2 13.4529 2 12.9914V7.83576ZM3.0082 8.0082V12.8189H7.97649C8.43806 12.8189 8.81225 13.1931 8.81225 13.6547V21.7988H13.1244V8.0082H3.0082Z" fill="#444444"/>
<path fill-rule="evenodd" clip-rule="evenodd" d="M26.1821 7.57026C26.3081 7.25117 26.6164 7.0415 26.9595 7.0415H32.7349C33.3289 7.0415 33.7333 7.64376 33.5085 8.19358L27.6993 22.4009C27.5709 22.715 27.2651 22.9203 26.9257 22.9203H21.3483C20.7586 22.9203 20.3543 22.326 20.571 21.7775L26.1821 7.57026ZM27.0767 8.04971L21.6018 21.9121H26.8099L32.4781 8.04971H27.0767Z" fill="#444444"/>
<path fill-rule="evenodd" clip-rule="evenodd" d="M19.3038 14.0056C20.7049 14.0056 21.9071 12.8132 21.9071 11.259C21.9071 9.7047 20.7049 8.51235 19.3038 8.51235C17.9027 8.51235 16.7006 9.7047 16.7006 11.259C16.7006 12.8132 17.9027 14.0056 19.3038 14.0056ZM19.3038 15.0138C21.2984 15.0138 22.9153 13.3327 22.9153 11.259C22.9153 9.18524 21.2984 7.50415 19.3038 7.50415C17.3093 7.50415 15.6924 9.18524 15.6924 11.259C15.6924 13.3327 17.3093 15.0138 19.3038 15.0138Z" fill="#444444"/>
<defs>
<linearGradient id="paint0_linear_5119_7254" x1="24.9134" y1="10.4217" x2="26.9581" y2="26.4269" gradientUnits="userSpaceOnUse">
<stop stop-color="#929EFF"/>
<stop offset="1" stop-color="#6070E9"/>
</linearGradient>
</defs>
</svg>
