<svg width="35" height="35" viewBox="0 0 35 35" fill="none" xmlns="http://www.w3.org/2000/svg">
<path d="M17.0723 30.0958V16.7969C17.0723 15.9428 17.7646 15.2505 18.6187 15.2505H31.4537C32.3078 15.2505 33.0001 15.9428 33.0001 16.7969V30.0958C33.0001 30.9499 32.3078 31.6422 31.4537 31.6422H18.6187C17.7646 31.6422 17.0723 30.9499 17.0723 30.0958Z" fill="url(#paint0_linear_5119_7153)" fill-opacity="0.8"/>
<path fill-rule="evenodd" clip-rule="evenodd" d="M9.2165 15.8999C9.02869 16.0877 8.72418 16.0877 8.53637 15.8999L5.47576 12.8393C5.28795 12.6515 5.28795 12.347 5.47576 12.1592C5.66358 11.9714 5.96808 11.9714 6.1559 12.1592L8.39551 14.3988L8.39551 3.49799C8.39551 3.23238 8.61083 3.01706 8.87644 3.01706C9.14204 3.01706 9.35736 3.23238 9.35736 3.49799L9.35736 14.3988L11.597 12.1592C11.7848 11.9714 12.0893 11.9714 12.2771 12.1592C12.4649 12.347 12.4649 12.6515 12.2771 12.8393L9.2165 15.8999Z" fill="#444444"/>
<path fill-rule="evenodd" clip-rule="evenodd" d="M25.4533 17.23C25.2655 17.0422 24.961 17.0422 24.7732 17.23L21.7126 20.2906C21.5248 20.4784 21.5248 20.7829 21.7126 20.9707C21.9004 21.1585 22.2049 21.1585 22.3927 20.9707L24.6323 18.7311L24.6323 29.6319C24.6323 29.8975 24.8476 30.1128 25.1133 30.1128C25.3789 30.1128 25.5942 29.8975 25.5942 29.6319L25.5942 18.7311L27.8338 20.9707C28.0216 21.1585 28.3261 21.1585 28.5139 20.9707C28.7017 20.7829 28.7017 20.4784 28.5139 20.2906L25.4533 17.23Z" fill="white"/>
<path fill-rule="evenodd" clip-rule="evenodd" d="M3 19.5634C3 19.2978 3.21532 19.0825 3.48093 19.0825H13.4985C13.7641 19.0825 13.9794 19.2978 13.9794 19.5634C13.9794 19.8291 13.7641 20.0444 13.4985 20.0444H3.48093C3.21532 20.0444 3 19.8291 3 19.5634Z" fill="#444444"/>
<path fill-rule="evenodd" clip-rule="evenodd" d="M18.7734 3.48093C18.7734 3.21532 18.9888 3 19.2544 3H29.2719C29.5375 3 29.7528 3.21532 29.7528 3.48093C29.7528 3.74654 29.5375 3.96186 29.2719 3.96186H19.2544C18.9888 3.96186 18.7734 3.74654 18.7734 3.48093Z" fill="#444444"/>
<path fill-rule="evenodd" clip-rule="evenodd" d="M3 23.4294C3 23.1638 3.21532 22.9485 3.48093 22.9485H13.4985C13.7641 22.9485 13.9794 23.1638 13.9794 23.4294C13.9794 23.695 13.7641 23.9103 13.4985 23.9103H3.48093C3.21532 23.9103 3 23.695 3 23.4294Z" fill="#444444"/>
<path fill-rule="evenodd" clip-rule="evenodd" d="M18.7734 7.34689C18.7734 7.08129 18.9888 6.86597 19.2544 6.86597H29.2719C29.5375 6.86597 29.7528 7.08129 29.7528 7.34689C29.7528 7.6125 29.5375 7.82782 29.2719 7.82782H19.2544C18.9888 7.82782 18.7734 7.6125 18.7734 7.34689Z" fill="#444444"/>
<path fill-rule="evenodd" clip-rule="evenodd" d="M3 27.2954C3 27.0298 3.21532 26.8145 3.48093 26.8145H13.4985C13.7641 26.8145 13.9794 27.0298 13.9794 27.2954C13.9794 27.561 13.7641 27.7763 13.4985 27.7763H3.48093C3.21532 27.7763 3 27.561 3 27.2954Z" fill="#444444"/>
<path fill-rule="evenodd" clip-rule="evenodd" d="M18.7734 11.2129C18.7734 10.9473 18.9888 10.7319 19.2544 10.7319H29.2719C29.5375 10.7319 29.7528 10.9473 29.7528 11.2129C29.7528 11.4785 29.5375 11.6938 29.2719 11.6938H19.2544C18.9888 11.6938 18.7734 11.4785 18.7734 11.2129Z" fill="#444444"/>
<defs>
<linearGradient id="paint0_linear_5119_7153" x1="25.0362" y1="15.2505" x2="29.0979" y2="31.7505" gradientUnits="userSpaceOnUse">
<stop stop-color="#929EFF"/>
<stop offset="1" stop-color="#6070E9"/>
</linearGradient>
</defs>
</svg>
