<svg width="35" height="35" viewBox="0 0 35 35" fill="none" xmlns="http://www.w3.org/2000/svg">
<path d="M8.14755 16.0932C8.04613 15.6645 8.37132 15.2534 8.81187 15.2534H32.3166C32.7657 15.2534 33.0925 15.6796 32.9759 16.1133L29.2801 29.8615C29.0797 30.6069 28.4039 31.1251 27.632 31.1251H13.0535C12.2623 31.1251 11.5748 30.5813 11.3927 29.8113L8.14755 16.0932Z" fill="url(#paint0_linear_5119_7198)" fill-opacity="0.8"/>
<path fill-rule="evenodd" clip-rule="evenodd" d="M3 12.6748C3 12.3817 3.23763 12.144 3.53076 12.144H31.482C31.7751 12.144 32.0127 12.3817 32.0127 12.6748C32.0127 12.9679 31.7751 13.2056 31.482 13.2056H3.53076C3.23763 13.2056 3 12.9679 3 12.6748Z" fill="#444444"/>
<path fill-rule="evenodd" clip-rule="evenodd" d="M14.1189 4.47849C14.3673 4.63409 14.4425 4.96162 14.2869 5.21004L9.42302 12.9752C9.26742 13.2236 8.93989 13.2989 8.69147 13.1433C8.44305 12.9877 8.3678 12.6601 8.52341 12.4117L13.3873 4.64655C13.5429 4.39812 13.8704 4.32288 14.1189 4.47849Z" fill="#444444"/>
<path fill-rule="evenodd" clip-rule="evenodd" d="M20.638 4.47849C20.3896 4.63409 20.3143 4.96162 20.4699 5.21004L25.3338 12.9752C25.4894 13.2236 25.8169 13.2989 26.0654 13.1433C26.3138 12.9877 26.389 12.6601 26.2334 12.4117L21.3695 4.64655C21.2139 4.39812 20.8864 4.32288 20.638 4.47849Z" fill="#444444"/>
<path fill-rule="evenodd" clip-rule="evenodd" d="M26.0352 25.9002L29.6224 12.5557L30.6476 12.8312L27.0603 26.1757C26.5972 27.8985 25.0354 29.0959 23.2515 29.0959H11.3315C9.50301 29.0959 7.9143 27.8391 7.49338 26.0598L4.36035 12.8156L5.39337 12.5713L8.52639 25.8154C8.83402 27.1159 9.99514 28.0344 11.3315 28.0344H23.2515C24.5553 28.0344 25.6967 27.1592 26.0352 25.9002Z" fill="#444444"/>
<path fill-rule="evenodd" clip-rule="evenodd" d="M12.1281 18.4211C12.4052 18.3254 12.7074 18.4724 12.8031 18.7494L14.4244 23.4427C14.5201 23.7197 14.3731 24.0219 14.096 24.1177C13.819 24.2134 13.5168 24.0664 13.421 23.7893L11.7997 19.0961C11.704 18.819 11.851 18.5168 12.1281 18.4211Z" fill="white"/>
<path fill-rule="evenodd" clip-rule="evenodd" d="M23.3973 18.4211C23.1202 18.3254 22.818 18.4724 22.7223 18.7494L21.101 23.4427C21.0053 23.7197 21.1523 24.0219 21.4294 24.1177C21.7064 24.2134 22.0086 24.0664 22.1043 23.7893L23.7256 19.0961C23.8214 18.819 23.6743 18.5168 23.3973 18.4211Z" fill="white"/>
<path fill-rule="evenodd" clip-rule="evenodd" d="M17.6772 18.2212C17.9704 18.2212 18.208 18.4588 18.208 18.752V23.8718C18.208 24.165 17.9704 24.4026 17.6772 24.4026C17.3841 24.4026 17.1465 24.165 17.1465 23.8718V18.752C17.1465 18.4588 17.3841 18.2212 17.6772 18.2212Z" fill="white"/>
<defs>
<linearGradient id="paint0_linear_5119_7198" x1="20.578" y1="15.2534" x2="23.0686" y2="31.8236" gradientUnits="userSpaceOnUse">
<stop stop-color="#929EFF"/>
<stop offset="1" stop-color="#6070E9"/>
</linearGradient>
</defs>
</svg>
