<svg width="35" height="35" viewBox="0 0 35 35" fill="none" xmlns="http://www.w3.org/2000/svg">
<path fill-rule="evenodd" clip-rule="evenodd" d="M29.2213 20.1138V17.1241C29.2213 14.3997 27.0127 12.1912 24.2883 12.1912C21.5639 12.1912 19.3553 14.3997 19.3553 17.1241V20.1138H29.2213ZM30.6395 20.1138C31.5074 20.1138 32.2109 20.8174 32.2109 21.6853V30.3515C32.2109 31.2194 31.5074 31.923 30.6395 31.923H17.9371C17.0692 31.923 16.3657 31.2194 16.3657 30.3515V21.6853C16.3657 20.8174 17.0692 20.1138 17.9371 20.1138H30.6395Z" fill="url(#paint0_linear_5119_7230)" fill-opacity="0.8"/>
<path fill-rule="evenodd" clip-rule="evenodd" d="M2.21094 5.74971C2.21094 3.79516 3.79541 2.21069 5.74995 2.21069H19.4099C20.7444 2.21069 21.8262 3.2925 21.8262 4.62698V10.4372C21.8262 10.6793 21.6299 10.8756 21.3879 10.8756C21.1458 10.8756 20.9495 10.6793 20.9495 10.4372V4.62698C20.9495 3.77666 20.2602 3.08734 19.4099 3.08734H5.74995C4.27957 3.08734 3.08759 4.27932 3.08759 5.74971V26.3376C3.08759 27.808 4.27957 29 5.74995 29H9.3939C9.63598 29 9.83223 29.1962 9.83223 29.4383C9.83223 29.6804 9.63598 29.8766 9.3939 29.8766H5.74995C3.79541 29.8766 2.21094 28.2921 2.21094 26.3376V5.74971Z" fill="#444444"/>
<path d="M6.40116 21.8115C6.14185 21.8115 5.93164 21.6013 5.93164 21.342V21.342C5.93164 21.0827 6.14185 20.8725 6.40116 20.8725L11.7643 20.8725C12.0236 20.8725 12.2338 21.0827 12.2338 21.342V21.342C12.2338 21.6013 12.0236 21.8115 11.7643 21.8115L6.40116 21.8115Z" fill="#444444"/>
<path d="M6.40116 24.5886C6.14185 24.5886 5.93164 24.3784 5.93164 24.1191V24.1191C5.93164 23.8598 6.14185 23.6496 6.40116 23.6496L8.84109 23.6496C9.1004 23.6496 9.31061 23.8598 9.31061 24.1191V24.1191C9.31061 24.3784 9.1004 24.5886 8.84109 24.5886L6.40116 24.5886Z" fill="#444444"/>
<path fill-rule="evenodd" clip-rule="evenodd" d="M17.2809 6.09498C17.4996 6.25318 17.5487 6.55872 17.3905 6.77741L15.3175 9.64301L12.8774 7.99863L10.7624 10.7645L8.68678 8.74213L6.70071 11.1344C6.5283 11.3421 6.22018 11.3707 6.0125 11.1983C5.80482 11.0259 5.77624 10.7178 5.94865 10.5101L8.61081 7.30339L10.6553 9.29542L12.6602 6.67356L15.0797 8.30407L16.5985 6.20451C16.7567 5.98581 17.0622 5.93678 17.2809 6.09498Z" fill="#444444"/>
<path fill-rule="evenodd" clip-rule="evenodd" d="M15.2043 19.3075H27.5545C27.8826 19.3075 28.1485 19.5735 28.1485 19.9015V28.3054C28.1485 28.6335 27.8826 28.8994 27.5545 28.8994H15.2043C14.8762 28.8994 14.6103 28.6335 14.6103 28.3054V19.9015C14.6103 19.5735 14.8762 19.3075 15.2043 19.3075ZM27.5545 18.3301C28.4224 18.3301 29.126 19.0336 29.126 19.9015V28.3054C29.126 29.1733 28.4224 29.8769 27.5545 29.8769H15.2043C14.3364 29.8769 13.6328 29.1733 13.6328 28.3054V19.9015C13.6328 19.0336 14.3364 18.3301 15.2043 18.3301H27.5545Z" fill="#444444"/>
<path fill-rule="evenodd" clip-rule="evenodd" d="M26.6914 15.4068C26.6914 12.473 24.3131 10.0947 21.3793 10.0947C18.4456 10.0947 16.0673 12.473 16.0673 15.4068V18.33H17.0447V15.4068C17.0447 13.0129 18.9854 11.0722 21.3793 11.0722C23.7733 11.0722 25.714 13.0129 25.714 15.4068V18.33H26.6914V15.4068Z" fill="#444444"/>
<path d="M22.9209 22.8084C22.9209 23.8498 22.0766 24.6941 21.0352 24.6941C19.9937 24.6941 19.1494 23.8498 19.1494 22.8084C19.1494 21.7669 19.9937 20.9226 21.0352 20.9226C22.0766 20.9226 22.9209 21.7669 22.9209 22.8084Z" fill="white"/>
<path d="M20.4062 23.1227C20.4062 22.7756 20.6877 22.4941 21.0348 22.4941V22.4941C21.382 22.4941 21.6634 22.7756 21.6634 23.1227V27.0514C21.6634 27.3985 21.382 27.68 21.0348 27.68V27.68C20.6877 27.68 20.4062 27.3985 20.4062 27.0514V23.1227Z" fill="white"/>
<defs>
<linearGradient id="paint0_linear_5119_7230" x1="24.2883" y1="12.1912" x2="22.7214" y2="20.3484" gradientUnits="userSpaceOnUse">
<stop stop-color="#929EFF"/>
<stop offset="1" stop-color="#6070E9"/>
</linearGradient>
</defs>
</svg>
