<svg width="35" height="35" viewBox="0 0 35 35" fill="none" xmlns="http://www.w3.org/2000/svg">
<path d="M5.34863 6.55364C5.34863 5.81397 5.94825 5.21436 6.68792 5.21436H30.7951C31.5347 5.21436 32.1343 5.81397 32.1343 6.55364V30.6608C32.1343 31.4004 31.5347 32.0001 30.7951 32.0001H6.68792C5.94825 32.0001 5.34863 31.4004 5.34863 30.6608V6.55364Z" fill="url(#paint0_linear_5119_7272)" fill-opacity="0.8"/>
<path fill-rule="evenodd" clip-rule="evenodd" d="M27.4464 2.83304H3.33929C3.05969 2.83304 2.83304 3.05969 2.83304 3.33929V27.4464C2.83304 27.726 3.05969 27.9527 3.33929 27.9527H27.4464C27.726 27.9527 27.9527 27.726 27.9527 27.4464V3.33929C27.9527 3.05969 27.726 2.83304 27.4464 2.83304ZM3.33929 2C2.59962 2 2 2.59962 2 3.33929V27.4464C2 28.1861 2.59962 28.7857 3.33929 28.7857H27.4464C28.1861 28.7857 28.7857 28.1861 28.7857 27.4464V3.33929C28.7857 2.59962 28.1861 2 27.4464 2H3.33929Z" fill="#444444"/>
<path fill-rule="evenodd" clip-rule="evenodd" d="M15.3926 6.92261C15.6187 6.92261 15.8019 7.10583 15.8019 7.33186V23.7018C15.8019 23.9278 15.6187 24.111 15.3926 24.111C15.1666 24.111 14.9834 23.9278 14.9834 23.7018V7.33186C14.9834 7.10583 15.1666 6.92261 15.3926 6.92261Z" fill="white"/>
<path fill-rule="evenodd" clip-rule="evenodd" d="M13.6025 17.5628C13.6025 17.8454 13.3735 18.0744 13.091 18.0744L6.18491 18.0744C5.90238 18.0744 5.67335 17.8454 5.67335 17.5628C5.67335 17.2803 5.90238 17.0513 6.18491 17.0513L13.091 17.0513C13.3735 17.0513 13.6025 17.2803 13.6025 17.5628Z" fill="white"/>
<path fill-rule="evenodd" clip-rule="evenodd" d="M13.6025 11.4242C13.6025 11.7067 13.3735 11.9357 13.091 11.9357L7.33592 11.9357C7.05339 11.9357 6.82436 11.7067 6.82436 11.4242C6.82436 11.1416 7.05339 10.9126 7.33592 10.9126L13.091 10.9126C13.3735 10.9126 13.6025 11.1416 13.6025 11.4242Z" fill="white"/>
<path fill-rule="evenodd" clip-rule="evenodd" d="M13.6025 14.4935C13.6025 14.776 13.3735 15.0051 13.091 15.0051L10.0216 15.0051C9.73909 15.0051 9.51005 14.776 9.51005 14.4935C9.51005 14.211 9.73909 13.9819 10.0216 13.9819L13.091 13.9819C13.3735 13.9819 13.6025 14.211 13.6025 14.4935Z" fill="white"/>
<path fill-rule="evenodd" clip-rule="evenodd" d="M13.8594 20.6322C13.8594 20.9147 13.6303 21.1437 13.3478 21.1437L8.23221 21.1437C7.94968 21.1437 7.72065 20.9147 7.72065 20.6322C7.72065 20.3496 7.94968 20.1206 8.23221 20.1206L13.3478 20.1206C13.6303 20.1206 13.8594 20.3496 13.8594 20.6322Z" fill="white"/>
<path fill-rule="evenodd" clip-rule="evenodd" d="M17.1846 17.5628C17.1846 17.8454 17.4136 18.0744 17.6961 18.0744L24.6022 18.0744C24.8847 18.0744 25.1138 17.8454 25.1138 17.5628C25.1138 17.2803 24.8847 17.0513 24.6022 17.0513L17.6961 17.0513C17.4136 17.0513 17.1846 17.2803 17.1846 17.5628Z" fill="white"/>
<path fill-rule="evenodd" clip-rule="evenodd" d="M17.1846 11.4242C17.1846 11.7067 17.4136 11.9357 17.6961 11.9357L23.4512 11.9357C23.7337 11.9357 23.9627 11.7067 23.9627 11.4242C23.9627 11.1416 23.7337 10.9126 23.4512 10.9126L17.6961 10.9126C17.4136 10.9126 17.1846 11.1416 17.1846 11.4242Z" fill="white"/>
<path fill-rule="evenodd" clip-rule="evenodd" d="M17.1846 14.4935C17.1846 14.776 17.4136 15.0051 17.6961 15.0051L20.7655 15.0051C21.048 15.0051 21.2771 14.776 21.2771 14.4935C21.2771 14.211 21.048 13.9819 20.7655 13.9819L17.6961 13.9819C17.4136 13.9819 17.1846 14.211 17.1846 14.4935Z" fill="white"/>
<path fill-rule="evenodd" clip-rule="evenodd" d="M16.9277 20.6322C16.9277 20.9147 17.1568 21.1437 17.4393 21.1437L22.5549 21.1437C22.8374 21.1437 23.0665 20.9147 23.0665 20.6322C23.0665 20.3496 22.8374 20.1206 22.5549 20.1206L17.4393 20.1206C17.1568 20.1206 16.9277 20.3496 16.9277 20.6322Z" fill="white"/>
<defs>
<linearGradient id="paint0_linear_5119_7272" x1="18.7415" y1="5.21436" x2="25.2116" y2="32.2631" gradientUnits="userSpaceOnUse">
<stop stop-color="#929EFF"/>
<stop offset="1" stop-color="#6070E9"/>
</linearGradient>
</defs>
</svg>
